<svg id="business" xmlns="http://www.w3.org/2000/svg" width="14.16" height="21.007" viewBox="0 0 14.16 21.007">
  <g id="Group_145" data-name="Group 145">
    <path id="Path_290" data-name="Path 290" d="M97.3,17.021a.308.308,0,0,0-.308.308v2.893a.17.17,0,0,1-.17.17H95.167v-6.06a.308.308,0,0,0-.615,0v6.06H91.221l.966-1.063a.552.552,0,0,0,.133-.443v-.009l-.92-5.435.248-.373a.7.7,0,0,0,.441.191.539.539,0,0,0,.482-.3h0l.97-1.945,2.211.856a2.132,2.132,0,0,1,1.241,1.938v2.081a.308.308,0,0,0,.615,0V13.811A2.746,2.746,0,0,0,95.982,11.3l-.006,0L92.3,9.876V9.013a2.883,2.883,0,0,0,1.091-1.9,1.332,1.332,0,0,0,.782-.319,1.306,1.306,0,0,0,.136-1.843V3.814a3.814,3.814,0,1,0-7.628,0v1.17a1.236,1.236,0,0,0-.317.824,1.3,1.3,0,0,0,.454.99,1.331,1.331,0,0,0,.782.319,2.853,2.853,0,0,0,1.154,1.942v.817L85.077,11.3l-.006,0a2.746,2.746,0,0,0-1.624,2.508v6.411a.786.786,0,0,0,.785.785h2.932a.308.308,0,1,0,0-.615H86.5v-6.06a.308.308,0,0,0-.615,0v6.06H84.232a.17.17,0,0,1-.17-.17V13.811A2.132,2.132,0,0,1,85.3,11.873l2.209-.856.97,1.945a.539.539,0,0,0,.482.3.7.7,0,0,0,.441-.191l.248.373-.92,5.435v.009a.552.552,0,0,0,.133.443l.966,1.063H88.6a.308.308,0,1,0,0,.615h8.221a.786.786,0,0,0,.785-.785V17.329A.308.308,0,0,0,97.3,17.021Zm-4.336-6.227-.9,1.813-1.088-.773,1.117-1.379Zm-1.819,1.919-.235.353h-.767l-.235-.353.618-.439ZM89.367,9.975V9.4a3.122,3.122,0,0,0,1.164.221,2.889,2.889,0,0,0,1.151-.24v.6L90.526,11.4Zm4.642-4.168a.689.689,0,0,1-.24.523.717.717,0,0,1-.355.164V5.121A.7.7,0,0,1,94.009,5.807Zm-6.437.687a.7.7,0,0,1-.595-.687.731.731,0,0,1,.595-.671Zm.017-1.985a1.522,1.522,0,0,0-.294.066V3.814a3.2,3.2,0,1,1,6.4,0v.74a1.368,1.368,0,0,0-.277-.054c0-.3,0-.24-.969-1.284a.547.547,0,0,0-.7-.085A5.933,5.933,0,0,1,88.16,4.1.547.547,0,0,0,87.59,4.509Zm.6,2.227V4.715a6.576,6.576,0,0,0,3.846-1.037c.445.478.687.729.765.825V6.736a2.306,2.306,0,0,1-4.611,0Zm.8,5.87-.9-1.813.874-.338,1.118,1.38Zm.353,6.337.891-5.263h.577l.891,5.263-1.179,1.3Z" transform="translate(-83.447)"/>
  </g>
</svg>
