<svg xmlns="http://www.w3.org/2000/svg" width="14.244" height="11.958" viewBox="0 0 14.244 11.958">
  <g id="chat" transform="translate(0 0)" opacity="0.56">
    <path id="Path_2196" data-name="Path 2196" d="M246.239,100a.239.239,0,1,0,.239.239A.239.239,0,0,0,246.239,100Zm0,0" transform="translate(-239.117 -97.391)"/>
    <path id="Path_2197" data-name="Path 2197" d="M80.239,260.478a.239.239,0,1,0-.239-.239A.239.239,0,0,0,80.239,260.478Zm0,0" transform="translate(-78.087 -253.217)"/>
    <path id="Path_2198" data-name="Path 2198" d="M9.348,0c-2.5,0-4.56,1.614-4.719,3.646C2.243,3.757,0,5.364,0,7.538a3.511,3.511,0,0,0,1.085,2.486,1.512,1.512,0,0,1-.447,1.489.248.248,0,0,0-.06.283.279.279,0,0,0,.257.16,3.186,3.186,0,0,0,2.126-.8,6.749,6.749,0,0,0,1.936.283c2.5,0,4.56-1.613,4.719-3.645a6.652,6.652,0,0,0,1.668-.277,3.186,3.186,0,0,0,2.126.8.279.279,0,0,0,.257-.16.248.248,0,0,0-.06-.283,1.512,1.512,0,0,1-.447-1.489A3.511,3.511,0,0,0,14.244,3.9c0-2.259-2.416-3.9-4.9-3.9ZM4.9,10.918a5.979,5.979,0,0,1-1.906-.307.292.292,0,0,0-.308.066,2.551,2.551,0,0,1-1.249.692A1.979,1.979,0,0,0,1.6,9.822a.256.256,0,0,0-.068-.11A3.025,3.025,0,0,1,.556,7.538c0-1.832,1.987-3.379,4.34-3.379,2.222,0,4.173,1.443,4.173,3.379C9.069,9.4,7.2,10.918,4.9,10.918Zm7.812-4.845a.257.257,0,0,0-.068.11,1.979,1.979,0,0,0,.17,1.547,2.55,2.55,0,0,1-1.249-.692.292.292,0,0,0-.308-.066,5.819,5.819,0,0,1-1.639.3,3.659,3.659,0,0,0-1.5-2.593H11.74a.261.261,0,1,0,0-.52H7.257a5.477,5.477,0,0,0-2.07-.512C5.346,1.9,7.151.519,9.348.519c2.353,0,4.34,1.548,4.34,3.379a3.025,3.025,0,0,1-.979,2.174Zm0,0" transform="translate(0 0)"/>
    <path id="Path_2199" data-name="Path 2199" d="M123.252,260h-3.013a.239.239,0,0,0,0,.478h3.013a.239.239,0,1,0,0-.478Zm0,0" transform="translate(-116.475 -253.217)"/>
    <path id="Path_2200" data-name="Path 2200" d="M84.209,320h-3.97a.239.239,0,0,0,0,.478h3.97a.239.239,0,0,0,0-.478Zm0,0" transform="translate(-77.596 -311.652)"/>
    <path id="Path_2201" data-name="Path 2201" d="M289.252,100h-3.013a.239.239,0,0,0,0,.478h3.013a.239.239,0,1,0,0-.478Zm0,0" transform="translate(-277.598 -97.391)"/>
  </g>
</svg>
