<svg xmlns="http://www.w3.org/2000/svg" width="21.383" height="19.712" viewBox="0 0 21.383 19.712">
  <g id="XMLID_996_" opacity="0.5">
    <g id="XMLID_41_">
      <path id="XMLID_4218_" d="M309.95,126.895a.418.418,0,1,0,.591-.591l-.006-.006a.418.418,0,1,0-.591.591Z" transform="translate(-296.883 -121.742)"/>
      <path id="XMLID_4221_" d="M19.8,29.1l1.456-1.456a.418.418,0,0,0-.3-.713H17.948A9.1,9.1,0,1,0,2.667,35.542,9.169,9.169,0,0,0,4.34,36.866L3.082,39.089a.418.418,0,0,0,.363.623H5.6A.418.418,0,0,0,5.96,39.5l.89-1.572a9.214,9.214,0,0,0,4.51,0l.89,1.572a.418.418,0,0,0,.363.212h2.151a.418.418,0,0,0,.363-.623l-1.258-2.223a9.171,9.171,0,0,0,1.674-1.324,9.073,9.073,0,0,0,2.405-4.269h3.017a.418.418,0,0,0,.3-.713Zm-.764-.418H16.126l.916-.916h2.915ZM5.353,38.877H4.162l.909-1.606a8.98,8.98,0,0,0,.96.408Zm8.694,0H12.856l-.678-1.2a8.98,8.98,0,0,0,.96-.408Zm.9-3.925a8.306,8.306,0,0,1-1.831,1.385l-.025.012-.015.009a8.161,8.161,0,0,1-1.6.671.414.414,0,0,0-.065.019,8.35,8.35,0,0,1-4.622,0,.415.415,0,0,0-.065-.019,8.161,8.161,0,0,1-1.6-.671l-.015-.009-.024-.012a8.305,8.305,0,0,1-1.831-1.385,8.269,8.269,0,1,1,13.828-8.016h-.216a.418.418,0,0,0-.3.122l-1.108,1.108A6.434,6.434,0,0,0,14.737,26a.418.418,0,0,0-.731.4,5.546,5.546,0,0,1,.675,2.286H12.839a3.76,3.76,0,1,0,0,.835h1.84A5.591,5.591,0,1,1,11.807,24.2a.418.418,0,1,0,.4-.731,6.478,6.478,0,0,0-3.966-.741,6.432,6.432,0,1,0,7.222,7.313l1.107,1.107a.418.418,0,0,0,.3.122h.216A8.242,8.242,0,0,1,14.951,34.951Zm-4.483-6.635a.418.418,0,0,0-.57-.153l-1,.579a.418.418,0,0,0,0,.723l1,.579a.417.417,0,0,0,.594-.523H12a2.9,2.9,0,0,1-.826,1.65h0A2.923,2.923,0,1,1,12,28.687H10.492A.417.417,0,0,0,10.468,28.317Zm6.574,2.121-.916-.916h2.915l.916.916Z" transform="translate(0 -20)"/>
    </g>
  </g>
</svg>
