<svg id="download_1_" data-name="download (1)" xmlns="http://www.w3.org/2000/svg" width="10.67" height="10.67" viewBox="0 0 10.67 10.67">
  <g id="Group_242" data-name="Group 242" transform="translate(0 6.523)">
    <g id="Group_241" data-name="Group 241">
      <path id="Path_321" data-name="Path 321" d="M9.836,313v2.9a.417.417,0,0,1-.417.417H1.25a.417.417,0,0,1-.417-.417V313H0v2.9a1.252,1.252,0,0,0,1.25,1.25H9.419a1.252,1.252,0,0,0,1.25-1.25V313Z" transform="translate(0 -313)" fill="#2745bd"/>
    </g>
  </g>
  <g id="Group_244" data-name="Group 244" transform="translate(2.745)">
    <g id="Group_243" data-name="Group 243">
      <path id="Path_322" data-name="Path 322" d="M136.307,4.912,134.723,6.5V0h-.834V6.5l-1.584-1.584-.589.589,2.59,2.59L136.9,5.5Z" transform="translate(-131.716)" fill="#2745bd"/>
    </g>
  </g>
</svg>
