<svg xmlns="http://www.w3.org/2000/svg" width="19.394" height="20.556" viewBox="0 0 19.394 20.556">
  <g id="electronics" transform="translate(0)" opacity="0.5">
    <path id="Path_281" data-name="Path 281" d="M148.26,49.666a.355.355,0,1,0-.711,0,4.953,4.953,0,0,1-3.911,4.862V53.442a4.274,4.274,0,0,0,3.2-4.131V43.977a4.266,4.266,0,1,0-8.533,0V49.31a4.274,4.274,0,0,0,3.2,4.131v1.087a4.952,4.952,0,0,1-3.911-4.863.356.356,0,0,0-.711,0,5.66,5.66,0,0,0,4.622,5.587v.812h-1.422a1.78,1.78,0,0,0-1.778,1.778.355.355,0,0,0,.356.355h7.822a.355.355,0,0,0,.355-.355,1.78,1.78,0,0,0-1.778-1.778h-1.422v-.813a5.66,5.66,0,0,0,4.622-5.587Zm-9.226,0h1.76a.356.356,0,1,0,0-.711h-1.778V47.888h1.778a.356.356,0,1,0,0-.711h-1.778V46.111h1.778a.356.356,0,1,0,0-.711h-1.778V44.333h1.778a.356.356,0,1,0,0-.711h-1.76a3.555,3.555,0,0,1,7.075,0h-1.76a.356.356,0,1,0,0,.711h1.778V45.4h-1.778a.356.356,0,1,0,0,.711h1.778v1.066h-1.778a.356.356,0,1,0,0,.711h1.778v1.067h-1.778a.356.356,0,1,0,0,.711h1.76a3.562,3.562,0,0,1-2.9,3.141h0a3.552,3.552,0,0,1-4.177-3.141Zm6.026,7.11a1.069,1.069,0,0,1,1.006.711h-6.989a1.069,1.069,0,0,1,1.006-.711h1.778a.355.355,0,0,0,.356-.355v-2.86c.117.01.236.016.355.016s.238-.006.356-.016v2.86a.355.355,0,0,0,.356.355Zm0,0" transform="translate(-129.772 -37.643)"/>
    <path id="Path_282" data-name="Path 282" d="M306.8,27.863a1.449,1.449,0,0,1,1.052,1.385.356.356,0,0,0,.356.35h.005a.356.356,0,0,0,.35-.361A2.159,2.159,0,0,0,307,27.181a.355.355,0,1,0-.2.682Zm0,0" transform="translate(-290.6 -25.752)"/>
    <path id="Path_283" data-name="Path 283" d="M313.8,1.326a3.625,3.625,0,0,0-2.02-1.316.356.356,0,0,0-.167.691,2.891,2.891,0,0,1,2.215,2.792.355.355,0,0,0,.355.352h0a.356.356,0,0,0,.353-.359,3.584,3.584,0,0,0-.739-2.161Zm0,0" transform="translate(-295.146 0.001)"/>
    <path id="Path_284" data-name="Path 284" d="M86.128,5.684,85.08,6.732a.355.355,0,1,0,.5.5l1.048-1.048a.356.356,0,0,0-.5-.5Zm0,0" transform="translate(-80.568 -5.289)"/>
    <path id="Path_285" data-name="Path 285" d="M45.874,45.934l-1.048,1.048a.355.355,0,1,0,.5.5l1.048-1.048a.355.355,0,1,0-.5-.5Zm0,0" transform="translate(-42.411 -43.443)"/>
    <path id="Path_286" data-name="Path 286" d="M45.329,5.684a.355.355,0,1,0-.5.5l1.048,1.048a.355.355,0,0,0,.5-.5Zm0,0" transform="translate(-42.411 -5.289)"/>
    <path id="Path_287" data-name="Path 287" d="M85.582,45.934a.355.355,0,1,0-.5.5l1.048,1.048a.356.356,0,1,0,.5-.5Zm0,0" transform="translate(-80.568 -43.443)"/>
    <path id="Path_288" data-name="Path 288" d="M1.77,203.551a1.422,1.422,0,1,0,1.422,1.422A1.424,1.424,0,0,0,1.77,203.551Zm0,2.133a.711.711,0,1,1,.711-.711A.712.712,0,0,1,1.77,205.684Zm0,0" transform="translate(-0.348 -192.95)"/>
    <path id="Path_289" data-name="Path 289" d="M83.336,142.647a.533.533,0,1,1-.533-.533A.533.533,0,0,1,83.336,142.647Zm0,0" transform="translate(-78.003 -134.712)"/>
  </g>
</svg>
