<svg xmlns="http://www.w3.org/2000/svg" width="11.089" height="11.089" viewBox="0 0 11.089 11.089">
  <path id="global" d="M10.481,3.024a5.54,5.54,0,0,0-9.873,0A.211.211,0,0,0,.6,3.047a5.524,5.524,0,0,0,0,4.994.211.211,0,0,0,.011.021,5.54,5.54,0,0,0,9.873,0,.2.2,0,0,0,.012-.024,5.525,5.525,0,0,0,0-4.993.248.248,0,0,0-.012-.024Zm-.369,4.69H7.992a11.062,11.062,0,0,0,.2-1.929h2.4A5.019,5.019,0,0,1,10.111,7.714ZM5.544,10.607c-.763,0-1.446-.978-1.834-2.411H7.379c-.388,1.433-1.072,2.411-1.834,2.411ZM3.595,7.714A10.509,10.509,0,0,1,3.38,5.786H7.709a10.55,10.55,0,0,1-.215,1.929ZM.494,5.786H2.9a11.085,11.085,0,0,0,.2,1.929H.977A5.019,5.019,0,0,1,.494,5.786ZM.977,3.375H3.1A11.062,11.062,0,0,0,2.9,5.3H.494A5.019,5.019,0,0,1,.977,3.375ZM5.544.482c.763,0,1.446.978,1.834,2.411H3.71C4.1,1.46,4.782.482,5.544.482ZM7.494,3.375A10.507,10.507,0,0,1,7.708,5.3H3.38a10.548,10.548,0,0,1,.215-1.929Zm.7,1.929a11.085,11.085,0,0,0-.2-1.929h2.119A5.019,5.019,0,0,1,10.594,5.3ZM9.848,2.893H7.883A5.363,5.363,0,0,0,6.807.648,5.072,5.072,0,0,1,9.848,2.893ZM4.282.648A5.369,5.369,0,0,0,3.205,2.893H1.24A5.073,5.073,0,0,1,4.282.648ZM1.24,8.2H3.205a5.363,5.363,0,0,0,1.076,2.245A5.073,5.073,0,0,1,1.24,8.2Zm5.567,2.245A5.369,5.369,0,0,0,7.883,8.2H9.848a5.073,5.073,0,0,1-3.041,2.245Zm0,0" transform="translate(0)" opacity="0.5"/>
</svg>
