<svg xmlns="http://www.w3.org/2000/svg" width="20.079" height="20.081" viewBox="0 0 20.079 20.081">
  <path id="home-run" d="M20.04,8.734l0,0L11.847.541a1.848,1.848,0,0,0-2.615,0L1.045,8.728l-.008.008a1.848,1.848,0,0,0,1.23,3.15l.057,0H2.65v6.028a2.166,2.166,0,0,0,2.164,2.164h3.2a.588.588,0,0,0,.588-.588V14.766a.988.988,0,0,1,.987-.987h1.89a.988.988,0,0,1,.987.987v4.726a.588.588,0,0,0,.588.588h3.2a2.166,2.166,0,0,0,2.164-2.164V11.889h.3A1.849,1.849,0,0,0,20.04,8.734Zm-.833,1.782a.668.668,0,0,1-.475.2H17.84a.588.588,0,0,0-.588.588v6.616a.988.988,0,0,1-.987.987H13.649V14.766A2.166,2.166,0,0,0,11.485,12.6H9.594a2.166,2.166,0,0,0-2.164,2.164V18.9H4.814a.988.988,0,0,1-.987-.987V11.3a.588.588,0,0,0-.588-.588h-.9a.671.671,0,0,1-.463-1.146h0l8.191-8.191a.672.672,0,0,1,.95,0L19.2,9.562l0,0a.674.674,0,0,1,0,.949Zm0,0" transform="translate(-0.5 0.001)" fill="#fff"/>
</svg>
