<svg xmlns="http://www.w3.org/2000/svg" width="8.378" height="10.999" viewBox="0 0 8.378 10.999">
  <g id="information" transform="translate(-61)" opacity="0.47">
    <path id="Path_2206" data-name="Path 2206" d="M69.283,2.672,66.706.094A.324.324,0,0,0,66.478,0H61.967A.968.968,0,0,0,61,.967v9.065a.968.968,0,0,0,.967.967h6.444a.968.968,0,0,0,.967-.967V2.9A.326.326,0,0,0,69.283,2.672ZM66.8,1.1l1.478,1.478H67.122a.323.323,0,0,1-.322-.322Zm1.611,9.254H61.967a.323.323,0,0,1-.322-.322V.967a.323.323,0,0,1,.322-.322h4.189V2.256a.968.968,0,0,0,.967.967h1.611v6.81A.323.323,0,0,1,68.411,10.354Z" transform="translate(0 0)"/>
    <path id="Path_2207" data-name="Path 2207" d="M185.423,242H181.4a.33.33,0,1,0,0,.644h4.021a.33.33,0,1,0,0-.644Z" transform="translate(-118.381 -236.801)"/>
    <path id="Path_2208" data-name="Path 2208" d="M185.423,302H181.4a.33.33,0,1,0,0,.644h4.021a.33.33,0,1,0,0-.644Z" transform="translate(-118.381 -295.513)"/>
    <path id="Path_2209" data-name="Path 2209" d="M185.423,362H181.4a.33.33,0,1,0,0,.644h4.021a.33.33,0,1,0,0-.644Z" transform="translate(-118.381 -354.224)"/>
    <ellipse id="Ellipse_38" data-name="Ellipse 38" cx="0.5" rx="0.5" transform="translate(62.189 5.499)"/>
  </g>
</svg>
