<svg id="instagram" xmlns="http://www.w3.org/2000/svg" width="11.242" height="11.245" viewBox="0 0 11.242 11.245">
  <path id="Path_294" data-name="Path 294" d="M11.662,3.306A4.109,4.109,0,0,0,11.4,1.942,2.88,2.88,0,0,0,9.756.3,4.119,4.119,0,0,0,8.392.035C7.79.007,7.6,0,6.072,0S4.354.007,3.754.033A4.11,4.11,0,0,0,2.39.294a2.744,2.744,0,0,0-1,.65,2.768,2.768,0,0,0-.648,1A4.12,4.12,0,0,0,.484,3.3c-.029.6-.035.793-.035,2.32S.455,7.341.482,7.941A4.109,4.109,0,0,0,.743,9.305,2.88,2.88,0,0,0,2.388,10.95a4.12,4.12,0,0,0,1.364.261c.6.026.791.033,2.317.033s1.718-.007,2.317-.033a4.108,4.108,0,0,0,1.364-.261A2.876,2.876,0,0,0,11.4,9.305a4.123,4.123,0,0,0,.261-1.364c.026-.6.033-.791.033-2.317s0-1.718-.029-2.317ZM10.65,7.9a3.082,3.082,0,0,1-.193,1.043,1.865,1.865,0,0,1-1.068,1.068,3.093,3.093,0,0,1-1.043.193c-.593.026-.771.033-2.271.033S4.394,10.228,3.8,10.2a3.08,3.08,0,0,1-1.043-.193,1.73,1.73,0,0,1-.646-.42,1.748,1.748,0,0,1-.42-.646A3.094,3.094,0,0,1,1.5,7.9c-.026-.593-.033-.771-.033-2.271s.007-1.68.033-2.271a3.081,3.081,0,0,1,.193-1.043,1.709,1.709,0,0,1,.422-.646,1.746,1.746,0,0,1,.646-.42,3.1,3.1,0,0,1,1.043-.193c.593-.026.771-.033,2.271-.033s1.68.007,2.271.033a3.082,3.082,0,0,1,1.043.193,1.729,1.729,0,0,1,.646.42,1.748,1.748,0,0,1,.42.646,3.1,3.1,0,0,1,.193,1.043c.026.593.033.771.033,2.271S10.676,7.3,10.65,7.9Zm0,0" transform="translate(-0.449 0)" fill="#fff"/>
  <path id="Path_295" data-name="Path 295" d="M127.838,124.5a2.889,2.889,0,1,0,2.889,2.889A2.889,2.889,0,0,0,127.838,124.5Zm0,4.762a1.874,1.874,0,1,1,1.874-1.874A1.874,1.874,0,0,1,127.838,129.262Zm0,0" transform="translate(-122.214 -121.765)" fill="#fff"/>
  <path id="Path_296" data-name="Path 296" d="M363.8,89.276a.674.674,0,1,1-.674-.674A.674.674,0,0,1,363.8,89.276Zm0,0" transform="translate(-354.498 -86.656)" fill="#fff"/>
</svg>
