<svg xmlns="http://www.w3.org/2000/svg" width="13.337" height="13.34" viewBox="0 0 13.337 13.34">
  <g id="instagram-gray-small" opacity="0.4">
    <path id="Path_294" data-name="Path 294" d="M13.752,3.922a4.874,4.874,0,0,0-.31-1.618A3.417,3.417,0,0,0,11.49.352,4.887,4.887,0,0,0,9.872.042C9.158.008,8.931,0,7.12,0S5.082.008,4.37.039a4.876,4.876,0,0,0-1.618.31,3.255,3.255,0,0,0-1.183.771A3.284,3.284,0,0,0,.8,2.3,4.887,4.887,0,0,0,.49,3.919C.456,4.633.449,4.86.449,6.671S.456,8.709.488,9.421A4.874,4.874,0,0,0,.8,11.039,3.417,3.417,0,0,0,2.75,12.991a4.888,4.888,0,0,0,1.618.31c.711.031.938.039,2.749.039s2.038-.008,2.749-.039a4.873,4.873,0,0,0,1.618-.31,3.412,3.412,0,0,0,1.952-1.952,4.891,4.891,0,0,0,.31-1.618c.031-.711.039-.938.039-2.749s0-2.038-.034-2.749Zm-1.2,5.446a3.656,3.656,0,0,1-.229,1.238,2.213,2.213,0,0,1-1.267,1.267,3.669,3.669,0,0,1-1.238.229c-.7.031-.915.039-2.694.039s-1.994-.008-2.695-.039a3.654,3.654,0,0,1-1.238-.229,2.053,2.053,0,0,1-.766-.5,2.074,2.074,0,0,1-.5-.766A3.67,3.67,0,0,1,1.7,9.371c-.031-.7-.039-.915-.039-2.695s.008-1.994.039-2.694a3.654,3.654,0,0,1,.229-1.238,2.028,2.028,0,0,1,.5-.766,2.071,2.071,0,0,1,.766-.5A3.672,3.672,0,0,1,4.43,1.251c.7-.031.915-.039,2.694-.039s1.994.008,2.695.039a3.656,3.656,0,0,1,1.238.229,2.051,2.051,0,0,1,.766.5,2.074,2.074,0,0,1,.5.766,3.671,3.671,0,0,1,.229,1.238c.031.7.039.915.039,2.694s-.008,1.988-.039,2.692Zm0,0" transform="translate(-0.449 0)"/>
    <path id="Path_295" data-name="Path 295" d="M128.376,124.5a3.427,3.427,0,1,0,3.427,3.427A3.428,3.428,0,0,0,128.376,124.5Zm0,5.65a2.223,2.223,0,1,1,2.223-2.223A2.223,2.223,0,0,1,128.376,130.15Zm0,0" transform="translate(-121.705 -121.256)"/>
    <path id="Path_296" data-name="Path 296" d="M364.05,89.4a.8.8,0,1,1-.8-.8A.8.8,0,0,1,364.05,89.4Zm0,0" transform="translate(-353.016 -86.293)"/>
  </g>
</svg>
