<svg xmlns="http://www.w3.org/2000/svg" width="13.952" height="14" viewBox="0 0 13.952 14">
  <g id="internet" transform="translate(-0.881)">
    <path id="Path_333" data-name="Path 333" d="M157.805,272h-5.4a.137.137,0,0,0-.137.14c.016.633.059,1.238.124,1.809a.137.137,0,0,0,.169.117,10.375,10.375,0,0,1,5.086,0,.137.137,0,0,0,.169-.117c.065-.572.108-1.176.124-1.809A.137.137,0,0,0,157.805,272Z" transform="translate(-147.249 -264.563)" fill="#2745bd"/>
    <path id="Path_334" data-name="Path 334" d="M157.818,164.391a.137.137,0,0,0-.169-.117,10.374,10.374,0,0,1-5.086,0,.137.137,0,0,0-.169.117c-.065.572-.108,1.176-.124,1.809a.137.137,0,0,0,.137.14h5.4a.137.137,0,0,0,.137-.14C157.926,165.568,157.883,164.963,157.818,164.391Z" transform="translate(-147.249 -159.778)" fill="#2745bd"/>
    <path id="Path_335" data-name="Path 335" d="M168.01,3.46A10.927,10.927,0,0,0,166.956.207a.136.136,0,0,0-.092-.068,7.085,7.085,0,0,0-2.793,0,.136.136,0,0,0-.092.068,10.926,10.926,0,0,0-1.054,3.253.136.136,0,0,0,.1.156,9.388,9.388,0,0,0,2.445.322,9.387,9.387,0,0,0,2.445-.322A.136.136,0,0,0,168.01,3.46Z" transform="translate(-157.611)" fill="#2745bd"/>
    <path id="Path_336" data-name="Path 336" d="M355.544,22.581a.137.137,0,0,0-.183.175l0,.006a13.633,13.633,0,0,1,.644,2.327.137.137,0,0,0,.187.1,9.392,9.392,0,0,0,1.534-.8.137.137,0,0,0,.026-.208q-.083-.09-.17-.177A7,7,0,0,0,355.544,22.581Z" transform="translate(-344.778 -21.951)" fill="#2745bd"/>
    <path id="Path_337" data-name="Path 337" d="M386.233,116.582h2.991a.137.137,0,0,0,.136-.149,6.931,6.931,0,0,0-1.124-3.259.137.137,0,0,0-.191-.039,10.245,10.245,0,0,1-1.659.889q-.179.076-.36.144a.137.137,0,0,0-.088.145c.086.686.139,1.4.158,2.135A.137.137,0,0,0,386.233,116.582Z" transform="translate(-374.528 -110.019)" fill="#2745bd"/>
    <path id="Path_338" data-name="Path 338" d="M162.924,368.478a10.926,10.926,0,0,0,1.054,3.253.136.136,0,0,0,.092.068,7.083,7.083,0,0,0,2.793,0,.136.136,0,0,0,.092-.068,10.926,10.926,0,0,0,1.054-3.253.136.136,0,0,0-.1-.156,9.435,9.435,0,0,0-4.889,0A.136.136,0,0,0,162.924,368.478Z" transform="translate(-157.611 -357.938)" fill="#2745bd"/>
    <path id="Path_339" data-name="Path 339" d="M3.854,274.559q.179-.076.36-.144a.137.137,0,0,0,.088-.145c-.086-.686-.139-1.4-.158-2.135A.137.137,0,0,0,4.008,272H1.017a.137.137,0,0,0-.136.149,6.931,6.931,0,0,0,1.124,3.259.137.137,0,0,0,.191.039A10.243,10.243,0,0,1,3.854,274.559Z" transform="translate(0 -264.563)" fill="#2745bd"/>
    <path id="Path_340" data-name="Path 340" d="M357.729,394.024a9.388,9.388,0,0,0-1.534-.8.137.137,0,0,0-.187.1,13.626,13.626,0,0,1-.644,2.327l0,.006a.137.137,0,0,0,.183.175,7,7,0,0,0,2.04-1.42q.087-.087.17-.177A.137.137,0,0,0,357.729,394.024Z" transform="translate(-344.779 -382.459)" fill="#2745bd"/>
    <path id="Path_341" data-name="Path 341" d="M386.1,272.133c-.018.733-.072,1.449-.158,2.135a.137.137,0,0,0,.088.145q.181.069.36.144a10.253,10.253,0,0,1,1.659.888.137.137,0,0,0,.191-.039,6.932,6.932,0,0,0,1.124-3.259.137.137,0,0,0-.136-.149h-2.991A.137.137,0,0,0,386.1,272.133Z" transform="translate(-374.528 -264.561)" fill="#2745bd"/>
    <path id="Path_342" data-name="Path 342" d="M67.484,24.385a9.39,9.39,0,0,0,1.534.8.137.137,0,0,0,.187-.1,13.631,13.631,0,0,1,.644-2.327l0-.006a.137.137,0,0,0-.183-.175A7,7,0,0,0,67.628,24q-.087.087-.17.177A.137.137,0,0,0,67.484,24.385Z" transform="translate(-64.721 -21.95)" fill="#2745bd"/>
    <path id="Path_343" data-name="Path 343" d="M4.142,116.582a21.583,21.583,0,0,1,.161-2.269.137.137,0,0,0-.088-.145q-.181-.069-.36-.144a10.25,10.25,0,0,1-1.659-.889.137.137,0,0,0-.191.039,6.932,6.932,0,0,0-1.124,3.259.137.137,0,0,0,.136.149Z" transform="translate(0 -110.02)" fill="#2745bd"/>
    <path id="Path_344" data-name="Path 344" d="M69.669,395.828a.137.137,0,0,0,.183-.175l0-.006a13.633,13.633,0,0,1-.644-2.327.137.137,0,0,0-.187-.1,9.392,9.392,0,0,0-1.534.8.137.137,0,0,0-.026.208q.083.09.17.177A7,7,0,0,0,69.669,395.828Z" transform="translate(-64.722 -382.458)" fill="#2745bd"/>
  </g>
</svg>
