<svg xmlns="http://www.w3.org/2000/svg" width="13.139" height="13.141" viewBox="0 0 13.139 13.141">
  <g id="link" opacity="0.3">
    <g id="Group_157" data-name="Group 157" transform="translate(0 4.224)">
      <g id="Group_156" data-name="Group 156" transform="translate(0)">
        <path id="Path_299" data-name="Path 299" d="M8.056,165.512a2.982,2.982,0,0,0-.515-.414,3.066,3.066,0,0,0-3.821.414L.935,168.3a3.066,3.066,0,0,0,4.333,4.338l2.3-2.3a.219.219,0,0,0-.155-.374H7.324a3.686,3.686,0,0,1-1.4-.271.219.219,0,0,0-.239.048L4.031,171.4a1.315,1.315,0,1,1-1.859-1.859l2.8-2.794a1.314,1.314,0,0,1,1.857,0,.9.9,0,0,0,1.231,0,.867.867,0,0,0,0-1.231Z" transform="translate(-0.039 -164.614)"/>
      </g>
    </g>
    <g id="Group_159" data-name="Group 159" transform="translate(4.862 0)">
      <g id="Group_158" data-name="Group 158" transform="translate(0 0)">
        <path id="Path_300" data-name="Path 300" d="M196.88.9a3.066,3.066,0,0,0-4.336,0l-2.3,2.295a.22.22,0,0,0,.16.374h.081a3.679,3.679,0,0,1,1.4.274.219.219,0,0,0,.239-.048l1.649-1.647a1.315,1.315,0,1,1,1.859,1.859l-2.054,2.052-.018.02-.718.714a1.314,1.314,0,0,1-1.857,0,.9.9,0,0,0-1.231,0,.873.873,0,0,0,0,1.235,3.039,3.039,0,0,0,.876.613c.046.022.092.039.138.059s.094.035.14.053.094.033.14.046l.129.035c.088.022.175.039.265.055a3.049,3.049,0,0,0,.326.031h.166l.131-.015c.048,0,.1-.013.155-.013h.074l.151-.022.07-.013.127-.026h.024a3.065,3.065,0,0,0,1.421-.806l2.787-2.787A3.066,3.066,0,0,0,196.88.9Z" transform="translate(-189.502 0)"/>
      </g>
    </g>
  </g>
</svg>
