<svg xmlns="http://www.w3.org/2000/svg" width="35.544" height="52.098" viewBox="0 0 35.544 52.098">
  <g id="logo" transform="translate(0)">
    <path id="Path_1" data-name="Path 1" d="M1447.245,131.879c1.172,0,2.344-.01,3.516-.01v6.01c.561,0,1.436-.014,2-.014v-6.01c1.092,0,2.43.014,3.522.014-.01,2.093-.01,4.177-.01,6.27a17.531,17.531,0,0,1,12.04,9.035c-1.692.551-3.4,1.1-5.088,1.653-2.394-3.436-6.09-6.21-10.427-6.23-6.35-.451-12.17,4.417-13.712,10.427-2.214,7.3,1.252,16.236,8.524,19.151,5.709,2.5,12.951-.2,15.926-5.589,1.733.511,3.456,1.042,5.178,1.572-2.333,4.958-7.161,8.183-12.42,9.385-.01,2.133-.02,4.277-.02,6.41h-3.512V177.7c-.561,0-1.426-.01-2-.01v6.26c-1.172,0-2.344-.01-3.516-.01q.015-3.351.01-6.681a20,20,0,0,1-14.063-19.381,19.33,19.33,0,0,1,14.063-19.442Q1447.255,135.164,1447.245,131.879Z" transform="translate(-1433.165 -131.855)" fill="#fff"/>
    <path id="Path_2" data-name="Path 2" d="M3098.949,2449.356c-1.3-6.882,4.7-13.612,11.619-13.512-.03,1.343-.05,2.685-.08,4.027-3.766.481-7.562,3.3-7.512,7.393-.38,4.226,3.465,7.812,7.562,7.932v4.187C3104.949,2459.211,3099.641,2455.054,3098.949,2449.356Z" transform="translate(-3088.175 -2421.186)" fill="#fff"/>
  </g>
</svg>
