<svg xmlns="http://www.w3.org/2000/svg" width="21.007" height="21.007" viewBox="0 0 21.007 21.007">
  <g id="Page-1" opacity="0.4">
    <g id="_039---Internet-News" data-name="039---Internet-News">
      <path id="Shape" d="M10.5,0a10.5,10.5,0,1,0,10.5,10.5A10.5,10.5,0,0,0,10.5,0Zm8.038,4.9H17.016A9.618,9.618,0,0,0,14.555,1.58,9.859,9.859,0,0,1,18.542,4.9ZM.709,10.854H2.1V11.9A1.751,1.751,0,0,0,3.12,13.489a12.955,12.955,0,0,0,.442,1.566H1.825a9.733,9.733,0,0,1-1.116-4.2Zm16.447,2.1H3.851A1.05,1.05,0,0,1,2.8,11.9V9.1a1.05,1.05,0,0,1,1.05-1.05h13.3a1.05,1.05,0,0,1,1.05,1.05v2.8A1.05,1.05,0,0,1,17.156,12.954Zm-7,2.8v4.474c-.908-.359-1.763-2.071-2.281-4.474Zm-2.419-.7q-.12-.673-.2-1.4h2.622v1.4Zm3.119,5.174V15.755h2.281C12.617,18.158,11.762,19.871,10.854,20.229Zm0-5.174v-1.4h2.622q-.083.726-.2,1.4Zm0-10.154V.778c.863.342,1.681,1.9,2.206,4.124Zm2.356.7c.109.552.2,1.14.266,1.751H10.854V5.6ZM10.154.778V4.9H7.948C8.473,2.682,9.29,1.12,10.154.778Zm0,4.824V7.353H7.531c.07-.61.158-1.2.266-1.751Zm6.976,1.751H14.18q-.1-.923-.255-1.751h2.639A11.89,11.89,0,0,1,17.129,7.353ZM13.785,4.9a9.9,9.9,0,0,0-1.6-3.91A7.563,7.563,0,0,1,16.246,4.9Zm-6.563,0H4.762A7.563,7.563,0,0,1,8.82.992,9.9,9.9,0,0,0,7.222,4.9Zm-.14.7q-.152.827-.255,1.751H3.878A11.89,11.89,0,0,1,4.442,5.6ZM3.12,7.518A1.751,1.751,0,0,0,2.1,9.1v1.05H.709A9.736,9.736,0,0,1,2.019,5.6H3.694A12.783,12.783,0,0,0,3.12,7.518Zm.758,6.137H6.827c.053.485.116.955.19,1.4H4.309a12.066,12.066,0,0,1-.431-1.4Zm3.267,2.1a10.354,10.354,0,0,0,1.675,4.26,7.719,7.719,0,0,1-4.22-4.26Zm6.717,0h2.545a7.719,7.719,0,0,1-4.22,4.26,10.35,10.35,0,0,0,1.675-4.26Zm.128-.7c.075-.446.137-.916.19-1.4h2.948a12.066,12.066,0,0,1-.431,1.4Zm3.9-1.566A1.751,1.751,0,0,0,18.907,11.9v-1.05H20.3a9.733,9.733,0,0,1-1.116,4.2H17.446A12.955,12.955,0,0,0,17.887,13.489Zm1.019-3.336V9.1a1.751,1.751,0,0,0-1.019-1.585A12.782,12.782,0,0,0,17.313,5.6h1.675a9.736,9.736,0,0,1,1.31,4.552ZM6.453,1.58A9.618,9.618,0,0,0,3.991,4.9H2.466A9.859,9.859,0,0,1,6.453,1.58ZM2.232,15.755h1.6a9.768,9.768,0,0,0,2.622,3.672A9.861,9.861,0,0,1,2.232,15.755Zm12.322,3.672a9.768,9.768,0,0,0,2.622-3.672h1.6A9.863,9.863,0,0,1,14.554,19.428Z"/>
      <path id="Shape-2" data-name="Shape" d="M43.05,26.4a.35.35,0,1,1,.3-.525.35.35,0,0,0,.606-.35,1.05,1.05,0,1,0-.91,1.576.35.35,0,1,1-.3.525.35.35,0,0,0-.606.35,1.05,1.05,0,1,0,.91-1.576Z" transform="translate(-27.295 -16.247)"/>
      <path id="Shape-3" data-name="Shape" d="M23.751,25.7a.35.35,0,1,0,0-.7H22.7a.7.7,0,0,0-.7.7v2.1a.7.7,0,0,0,.7.7h1.05a.35.35,0,1,0,0-.7H22.7v-.7h.7a.35.35,0,0,0,0-.7h-.7v-.7Z" transform="translate(-14.297 -16.247)"/>
      <path id="Shape-4" data-name="Shape" d="M33.213,25.005a.35.35,0,0,0-.4.287l-.32,1.928-.443-.665a.364.364,0,0,0-.583,0l-.443.665L30.7,25.293a.35.35,0,0,0-.69.116l.467,2.8a.35.35,0,0,0,.637.137l.641-.965.642.964a.35.35,0,0,0,.637-.137l.467-2.8A.35.35,0,0,0,33.213,25.005Z" transform="translate(-19.501 -16.247)"/>
      <path id="Shape-5" data-name="Shape" d="M15.1,25a.35.35,0,0,0-.35.35v1.572l-1.089-1.757a.35.35,0,0,0-.648.183L13,28.149a.35.35,0,0,0,.7,0l.008-1.583,1.1,1.766a.35.35,0,0,0,.648-.185v-2.8A.35.35,0,0,0,15.1,25Z" transform="translate(-8.448 -16.247)"/>
    </g>
  </g>
</svg>
