<svg xmlns="http://www.w3.org/2000/svg" width="24.702" height="24.579" viewBox="0 0 24.702 24.579">
  <path id="notification-bell" d="M23.251,18.7c-2.175-1.881-4.189-4.536-4.189-11.163a6.961,6.961,0,0,0-13.922,0c0,6.633-2.012,9.285-4.19,11.165A2.756,2.756,0,0,0,0,20.783a.792.792,0,0,0,.792.792H8.306a3.876,3.876,0,0,0,7.59,0H23.41a.792.792,0,0,0,.792-.792A2.741,2.741,0,0,0,23.251,18.7ZM12.1,23.076a2.3,2.3,0,0,1-2.152-1.5h4.3A2.3,2.3,0,0,1,12.1,23.076ZM1.9,19.991a1.165,1.165,0,0,1,.092-.089c3.32-2.866,4.736-6.563,4.736-12.361a5.377,5.377,0,0,1,10.755,0c0,5.793,1.417,9.49,4.738,12.362a1.176,1.176,0,0,1,.092.088Z" transform="translate(0.25 -0.33)" stroke="#f6f6f6" stroke-width="0.5" opacity="0.5"/>
</svg>
