<svg xmlns="http://www.w3.org/2000/svg" width="16.959" height="20.35" viewBox="0 0 16.959 20.35">
  <g id="pause" transform="translate(-42.667)" opacity="0.5">
    <g id="Group_312" data-name="Group 312" transform="translate(42.667)">
      <g id="Group_311" data-name="Group 311" transform="translate(0)">
        <path id="Path_326" data-name="Path 326" d="M48.179,0h-4.24a1.273,1.273,0,0,0-1.272,1.272V19.079a1.273,1.273,0,0,0,1.272,1.272h4.24a1.273,1.273,0,0,0,1.272-1.272V1.272A1.274,1.274,0,0,0,48.179,0Z" transform="translate(-42.667)"/>
      </g>
    </g>
    <g id="Group_314" data-name="Group 314" transform="translate(52.842)">
      <g id="Group_313" data-name="Group 313" transform="translate(0)">
        <path id="Path_327" data-name="Path 327" d="M304.179,0h-4.24a1.273,1.273,0,0,0-1.272,1.272V19.079a1.273,1.273,0,0,0,1.272,1.272h4.24a1.273,1.273,0,0,0,1.272-1.272V1.272A1.274,1.274,0,0,0,304.179,0Z" transform="translate(-298.667)"/>
      </g>
    </g>
  </g>
</svg>
