<svg id="pro" xmlns="http://www.w3.org/2000/svg" width="18.771" height="24.485" viewBox="0 0 18.771 24.485">
  <g id="Group_842" data-name="Group 842" transform="translate(0)">
    <path id="Path_1823" data-name="Path 1823" d="M86.521,17h0a4.221,4.221,0,0,0-.8-.391l-2.334-.922-1.646-1.03a.414.414,0,0,0-.049-.026V13.96a4.092,4.092,0,0,0,2.337-3.086A1.9,1.9,0,0,0,85.818,9.03a1.791,1.791,0,0,0-.51-1.246V5.416A5.577,5.577,0,0,0,79.6,0h-.442a5.577,5.577,0,0,0-5.712,5.416V7.757A1.794,1.794,0,0,0,72.9,9.03,1.9,1.9,0,0,0,74.7,10.874a4.092,4.092,0,0,0,2.338,3.086v.624l-1.716,1.073a.425.425,0,0,0-.069.02L72.9,16.6a4.633,4.633,0,0,0-1.492.9,4.483,4.483,0,0,0-1.486,3.455V24.1a.4.4,0,0,0,.41.389h4.843a.389.389,0,1,0,0-.777H73.914V20.822a.411.411,0,0,0-.82,0v2.885h-2.35V20.964a3.737,3.737,0,0,1,2.436-3.628l.027-.01,1.955-.773,2.113,7.153h-.815a.389.389,0,1,0,0,.777H88.285a.4.4,0,0,0,.41-.39V20.964A4.494,4.494,0,0,0,86.521,17Zm-3.8-.8-1.235,2.407-1.532-1.069,1.62-1.594a.753.753,0,0,0,.115-.369v-.02ZM80.23,18.7l-.322.813H78.8l-.363-.82.89-.621Zm-2.382-3.056a.372.372,0,0,0,.006-.065V14.8h0v-.543a4.5,4.5,0,0,0,1.087.133h.841a4.5,4.5,0,0,0,1.087-.133v1.264l-1.526,1.5ZM85,9.03a1.092,1.092,0,0,1-.932,1.055V7.975A1.092,1.092,0,0,1,85,9.03ZM74.656,10.085a1.063,1.063,0,0,1,0-2.11Zm.412-3.279h0l-.042,0-.013,0-.028,0-.017,0-.022.005-.02.007-.018.006-.022.01-.014.006-.021.012-.013.008-.019.013-.013.009-.016.014-.013.011-.014.015-.012.013-.012.015-.011.015-.01.015-.011.017-.008.016-.009.018-.006.016-.008.02c0,.005,0,.011,0,.016s0,.014-.006.021,0,.012,0,.017,0,.014,0,.021,0,.012,0,.018,0,.011,0,.017a2.028,2.028,0,0,0-.4.079V5.416A4.776,4.776,0,0,1,79.153.778H79.6a4.776,4.776,0,0,1,4.893,4.639v1.86a2.026,2.026,0,0,0-.422-.087s0,0,0,0,0-.017,0-.026,0-.01,0-.015,0-.015,0-.022l0-.018,0-.018-.007-.02-.006-.015-.01-.021-.007-.013L84.008,7,84,6.984l-.013-.017-.011-.013-.013-.015-.013-.014-.013-.012L83.921,6.9l-.014-.01-.018-.012-.015-.009-.018-.01-.018-.009-.017-.008L83.8,6.831l-.015-.005-.026-.007-.011,0c-1.6-.346-2.089-2.262-2.093-2.281a.4.4,0,0,0-.318-.295.421.421,0,0,0-.414.153c-1.824,2.39-5.789,2.413-5.853,2.413Zm.408,3.517V7.57A9.1,9.1,0,0,0,81.1,5.4a3.706,3.706,0,0,0,2.145,2.087v2.836a3.382,3.382,0,0,1-3.465,3.285h-.841A3.382,3.382,0,0,1,75.476,10.324Zm1.558,5.192v.059a.371.371,0,0,0,.019.118.375.375,0,0,0,.1.4l1.561,1.441-1.544,1.077L75.94,16.2Zm.674,6.774-.8-2.722.019.006a.433.433,0,0,0,.1.011.425.425,0,0,0,.243-.076l.5-.347.346.783Zm.589,1.418.582-3.421h.963l.582,3.421Zm2.316-3.77.3-.763.48.335a.425.425,0,0,0,.243.076.433.433,0,0,0,.1-.011.423.423,0,0,0,.1-.036L81.017,22.3Zm7.262,3.77h-2.35V20.822a.411.411,0,0,0-.82,0v2.885H81.454l2.1-7.114,1.857.734.026.009a3.359,3.359,0,0,1,.636.312h0a3.7,3.7,0,0,1,1.8,3.316Z" transform="translate(-69.924)" fill="#005baf"/>
    <path id="Path_1824" data-name="Path 1824" d="M245.392,182.273a.41.41,0,1,0,0-.82h-.3V180.5a.41.41,0,1,0-.82,0v1.359a.41.41,0,0,0,.41.41Z" transform="translate(-235.475 -171.524)" fill="#005baf"/>
  </g>
</svg>
