<svg xmlns="http://www.w3.org/2000/svg" width="12.984" height="22.433" viewBox="0 0 12.984 22.433">
  <g id="pro_book" transform="translate(-72.777)" opacity="0.5">
    <g id="Group_155" data-name="Group 155" transform="translate(72.777)">
      <path id="Path_298" data-name="Path 298" d="M85.148.623a2.077,2.077,0,0,0-1.465-.61H74.855V0a2.083,2.083,0,0,0-2.077,2.075V20.625a1.989,1.989,0,0,0,.418,1.257,1.423,1.423,0,0,0,1.659.444,2.6,2.6,0,0,0,1.226-1.114l3.189-5.084,3.189,5.084a2.6,2.6,0,0,0,1.226,1.114,1.426,1.426,0,0,0,1.667-.444,1.989,1.989,0,0,0,.41-1.257V2.075A2.077,2.077,0,0,0,85.148.623Zm-.634,20.6a.41.41,0,0,1-.2.143.434.434,0,0,1-.26-.023,1.6,1.6,0,0,1-.714-.678L79.7,14.874a.519.519,0,0,0-.891,0l-3.635,5.783a1.6,1.6,0,0,1-.709.691.431.431,0,0,1-.26.023.41.41,0,0,1-.2-.143.956.956,0,0,1-.177-.6V2.077a1.039,1.039,0,0,1,1.026-1.026h8.829a1.026,1.026,0,0,1,1.007,1.023V20.623A.956.956,0,0,1,84.514,21.223Z" transform="translate(-72.777)"/>
    </g>
  </g>
</svg>
