<svg xmlns="http://www.w3.org/2000/svg" width="9.059" height="9.059" viewBox="0 0 9.059 9.059">
  <g id="source-code" opacity="0.5">
    <path id="Path_2202" data-name="Path 2202" d="M8.021,9.059H1.038A1.039,1.039,0,0,1,0,8.021V1.038A1.039,1.039,0,0,1,1.038,0H8.021A1.039,1.039,0,0,1,9.059,1.038V8.021A1.039,1.039,0,0,1,8.021,9.059ZM1.038.566a.472.472,0,0,0-.472.472V8.021a.472.472,0,0,0,.472.472H8.021a.472.472,0,0,0,.472-.472V1.038A.472.472,0,0,0,8.021.566Z"/>
    <path id="Path_2203" data-name="Path 2203" d="M4.916,11.08a.281.281,0,0,1-.2-.083L3.583,9.865a.283.283,0,0,1,0-.4L4.716,8.332a.283.283,0,0,1,.4.4l-.932.932.932.932a.283.283,0,0,1-.2.483Z" transform="translate(-2.179 -5.135)"/>
    <path id="Path_2204" data-name="Path 2204" d="M10.283,10.775a.293.293,0,0,1-.08-.011.283.283,0,0,1-.192-.351L10.955,7.2a.283.283,0,0,1,.543.16l-.944,3.208A.283.283,0,0,1,10.283,10.775Z" transform="translate(-6.225 -4.359)"/>
    <path id="Path_2205" data-name="Path 2205" d="M16.283,11.08a.283.283,0,0,1-.2-.484l.932-.932-.932-.932a.283.283,0,0,1,.4-.4l1.132,1.132a.283.283,0,0,1,0,.4L16.484,11a.281.281,0,0,1-.2.083Z" transform="translate(-9.961 -5.135)"/>
  </g>
</svg>
