<svg xmlns="http://www.w3.org/2000/svg" width="12.138" height="12.138" viewBox="0 0 12.138 12.138">
  <g id="tag" transform="translate(0)" opacity="0.4">
    <g id="Group_1111" data-name="Group 1111" transform="translate(0)">
      <g id="Group_1110" data-name="Group 1110" transform="translate(0)">
        <path id="Path_2210" data-name="Path 2210" d="M11.7,0H6.935a.433.433,0,0,0-.306.127l-6.5,6.5a.433.433,0,0,0,0,.613L4.9,12.011a.434.434,0,0,0,.613,0l6.5-6.5a.433.433,0,0,0,.127-.306V.433A.433.433,0,0,0,11.7,0ZM11.27,5.022,5.2,11.091,1.046,6.936,7.115.867H11.27Z" transform="translate(0)"/>
      </g>
    </g>
    <g id="Group_1113" data-name="Group 1113" transform="translate(7.802 1.734)">
      <g id="Group_1112" data-name="Group 1112">
        <path id="Path_2211" data-name="Path 2211" d="M308.5,68.267a1.3,1.3,0,1,0,1.3,1.3A1.3,1.3,0,0,0,308.5,68.267Zm0,1.734a.433.433,0,1,1,.433-.434A.433.433,0,0,1,308.5,70Z" transform="translate(-307.196 -68.267)"/>
      </g>
    </g>
  </g>
</svg>
