<svg id="trade1" xmlns="http://www.w3.org/2000/svg" width="12.554" height="12.554" viewBox="0 0 12.554 12.554">
  <path id="Path_267" data-name="Path 267" d="M45.012,11.835v-.4a.607.607,0,1,0,0-1.215h-.4a.2.2,0,1,1,0-.4h.607v.2h.4V9.4h-.607V9h-.4v.4a.607.607,0,0,0,0,1.215h.4a.2.2,0,1,1,0,.4H44.4v-.2H44v.607h.607v.4Z" transform="translate(-35.293 -7.38)" fill="#7e7e7e"/>
  <path id="Path_268" data-name="Path 268" d="M41.455,7.227a2.227,2.227,0,1,0-2.227,2.227A2.23,2.23,0,0,0,41.455,7.227Zm-4.05,0A1.822,1.822,0,1,1,39.227,9.05,1.824,1.824,0,0,1,37.4,7.227Z" transform="translate(-29.71 -4.19)" fill="#7e7e7e"/>
  <path id="Path_269" data-name="Path 269" d="M13.554,4.037a3.037,3.037,0,1,0-4.13,2.831l-.409.409H7.388L5.97,8.9H3.544l-2.49,2.7.3.275L3.721,9.3H6.154l1.417-1.62H9.184L9.864,7a3.023,3.023,0,0,0,.574.069L9.421,8.087H7.581L6.366,9.707H3.945L1,13.073v.481H12.744V6.1a3.023,3.023,0,0,0,.81-2.058Zm-5.67,0A2.632,2.632,0,1,1,10.517,6.67,2.635,2.635,0,0,1,7.885,4.037Zm3.24,2.976v6.136h-.81V7.766l.742-.742C11.079,7.02,11.1,7.018,11.125,7.014ZM9.588,8.492l.321-.321v4.978H9.1V8.492ZM3.835,13.149h-.81V11.374l.81-.926Zm.4-3.037h.81v3.037H4.24Zm1.215,0h.81v3.037h-.81ZM6.67,9.977,7.48,8.9v4.252H6.67ZM7.885,8.492h.81v4.657h-.81ZM2.62,11.837v1.312H1.472Zm8.91,1.312V6.9a3.032,3.032,0,0,0,.81-.436v6.688Z" transform="translate(-1 -1)" fill="#7e7e7e"/>
</svg>
