<svg xmlns="http://www.w3.org/2000/svg" width="19.391" height="19.391" viewBox="0 0 19.391 19.391">
  <g id="trade" opacity="0.5">
    <path id="Path_267" data-name="Path 267" d="M45.564,13.379v-.626a.938.938,0,0,0,0-1.877h-.626a.313.313,0,0,1,0-.626h.938v.313H46.5V9.626h-.938V9h-.626v.626a.938.938,0,0,0,0,1.877h.626a.313.313,0,1,1,0,.626h-.938v-.313H44v.938h.938v.626Z" transform="translate(-30.551 -6.498)"/>
    <path id="Path_268" data-name="Path 268" d="M43.881,8.44a3.44,3.44,0,1,0-3.44,3.44A3.444,3.444,0,0,0,43.881,8.44Zm-6.255,0a2.815,2.815,0,1,1,2.815,2.815A2.818,2.818,0,0,1,37.626,8.44Z" transform="translate(-25.741 -3.749)"/>
    <path id="Path_269" data-name="Path 269" d="M20.391,5.691a4.691,4.691,0,1,0-6.379,4.372l-.632.632H10.866L8.677,13.2H4.929L1.083,17.364l.459.424L5.2,13.823H8.961l2.189-2.5h2.49l1.051-1.051a4.669,4.669,0,0,0,.886.106l-1.57,1.57H11.165l-1.877,2.5H5.549L1,19.648v.743H19.14V8.87a4.669,4.669,0,0,0,1.251-3.179Zm-8.757,0A4.066,4.066,0,1,1,15.7,9.757,4.071,4.071,0,0,1,11.634,5.691Zm5,4.6v9.477H15.387V11.451L16.533,10.3C16.568,10.3,16.6,10.3,16.638,10.288Zm-2.373,2.284.5-.5v7.69H13.511V12.572ZM5.379,19.766H4.128V17.024l1.251-1.43ZM6,15.074H7.255v4.691H6Zm1.877,0H9.132v4.691H7.881Zm1.877-.209L11.008,13.2v6.568H9.757Zm1.877-2.293h1.251v7.194H11.634ZM3.5,17.739v2.027H1.728Zm13.762,2.027V10.109a4.682,4.682,0,0,0,1.251-.673v10.33Z" transform="translate(-1 -1)"/>
    <path id="Path_270" data-name="Path 270" d="M5.626,24.255h.626V23h.626V19.251H6.251V18H5.626v1.251H5V23h.626Zm0-4.379h.626v2.5H5.626Z" transform="translate(-3.749 -12.683)"/>
    <path id="Path_271" data-name="Path 271" d="M13.626,20.63h.626V19.379h.626V16.251h-.626V15h-.626v1.251H13v3.128h.626Zm0-3.753h.626v1.877h-.626Z" transform="translate(-9.247 -10.621)"/>
    <path id="Path_272" data-name="Path 272" d="M21.626,15h.626V13.753h.626v-2.5h-.626V10h-.626v1.251H21v2.5h.626Zm0-3.128h.626v1.251h-.626Z" transform="translate(-14.745 -7.185)"/>
  </g>
</svg>
