<svg xmlns="http://www.w3.org/2000/svg" width="14.64" height="11.895" viewBox="0 0 14.64 11.895">
  <g id="twitter" opacity="0.4">
    <g id="Group_154" data-name="Group 154" transform="translate(0 0)">
      <path id="Path_297" data-name="Path 297" d="M14.64,49.408a6.257,6.257,0,0,1-1.729.474,2.984,2.984,0,0,0,1.32-1.659,6,6,0,0,1-1.9.727A3,3,0,0,0,7.136,51a3.09,3.09,0,0,0,.07.684,8.5,8.5,0,0,1-6.186-3.139,3,3,0,0,0,.922,4.011,2.964,2.964,0,0,1-1.356-.37v.033a3.015,3.015,0,0,0,2.4,2.949,3,3,0,0,1-.787.1,2.654,2.654,0,0,1-.568-.051,3.03,3.03,0,0,0,2.8,2.091,6.03,6.03,0,0,1-3.721,1.28A5.622,5.622,0,0,1,0,58.548a8.449,8.449,0,0,0,4.6,1.347,8.483,8.483,0,0,0,8.542-8.541c0-.133,0-.261-.011-.388A5.987,5.987,0,0,0,14.64,49.408Z" transform="translate(0 -48)"/>
    </g>
  </g>
</svg>
